<?xml version="1.0" standalone="no"?>
<!DOCTYPE svg PUBLIC "-//W3C//DTD SVG 20010904//EN"
 "http://www.w3.org/TR/2001/REC-SVG-20010904/DTD/svg10.dtd">
<svg version="1.0" xmlns="http://www.w3.org/2000/svg"
 width="743.405233pt" height="586.554150pt" viewBox="0 0 743.405233 586.554150"
 preserveAspectRatio="xMidYMid meet">
<metadata>
Created by potrace 1.16, written by Peter Selinger 2001-2019
</metadata>
<g transform="translate(-10.000000,685.000000) scale(0.100000,-0.100000)"
fill="#000000" stroke="none">
<path d="M1481 6833 c-12 -10 -23 -30 -24 -44 -2 -21 -100 -108 -516 -455
-283 -236 -566 -473 -630 -526 -66 -56 -125 -98 -137 -98 -34 0 -74 -38 -74
-69 0 -39 26 -71 59 -71 23 0 42 -19 122 -117 52 -64 120 -148 151 -187 46
-56 78 -116 155 -286 l97 -215 5 -200 c4 -133 10 -207 19 -222 10 -18 178
-129 375 -248 137 -82 318 -209 336 -234 24 -33 141 -274 141 -290 0 -5 13
-23 29 -40 l29 -31 122 0 c151 0 141 5 321 -165 175 -165 207 -186 298 -193
104 -7 178 30 228 115 38 65 219 672 209 699 -13 34 16 -1 54 -65 l40 -68 -30
-98 c-34 -111 -37 -141 -14 -166 14 -16 14 -25 -5 -101 -120 -487 -161 -809
-126 -993 43 -233 222 -600 274 -566 13 8 12 25 -5 128 -14 89 -19 164 -18
303 1 266 26 374 171 735 l65 160 -21 40 c-11 22 -44 76 -73 120 -50 76 -72
96 -204 191 l-29 21 51 179 c134 467 188 650 194 657 4 5 13 -31 21 -80 11
-69 18 -88 32 -91 23 -5 22 14 -8 205 -30 183 -59 255 -139 337 -27 28 -42 42
-33 31 8 -11 18 -35 22 -53 4 -19 23 -60 41 -92 43 -72 50 -110 31 -180 -31
-115 -170 -586 -177 -598 -4 -9 -27 22 -67 90 l-60 103 -17 159 -17 159 -79
194 c-44 106 -80 206 -80 221 0 15 15 83 33 152 32 120 36 129 93 196 32 39
120 150 194 247 103 134 140 176 158 176 54 2 77 60 41 105 -41 52 -112 17
-107 -53 1 -34 -8 -50 -82 -147 -174 -227 -254 -324 -260 -317 -4 5 -15 140
-24 301 l-16 292 113 175 112 176 132 74 131 74 90 -92 c128 -132 152 -161
152 -189 0 -51 69 -77 103 -40 38 42 8 102 -49 102 -19 0 -36 8 -48 23 -10 12
-61 65 -113 118 l-95 97 124 66 c69 36 136 66 149 66 22 0 302 -54 342 -66 16
-5 17 -25 17 -240 0 -132 -4 -234 -9 -234 -10 0 -32 -56 -25 -63 3 -3 -68 -47
-157 -98 -135 -77 -169 -92 -200 -90 -61 3 -91 -57 -49 -99 17 -17 20 -33 20
-100 0 -78 0 -80 -25 -81 -124 -3 -136 -1 -159 20 -45 42 -126 3 -110 -53 16
-56 67 -69 113 -31 27 23 37 26 103 23 l73 -3 3 -82 c2 -72 0 -87 -19 -112
-33 -45 -10 -86 49 -87 59 -2 352 -168 352 -200 0 -12 10 -34 22 -49 l22 -28
-2 -1121 c-2 -1446 6 -1608 92 -1858 171 -501 718 -697 1147 -412 199 132 296
295 321 536 9 84 16 116 30 130 38 38 3 108 -54 108 -54 0 -79 -78 -37 -116
20 -18 21 -26 16 -119 -29 -532 -702 -819 -1123 -479 -210 169 -300 386 -333
803 -7 86 -11 574 -11 1334 l0 1200 25 23 c14 13 25 32 25 43 0 23 17 35 195
136 91 52 128 68 154 66 63 -4 92 52 52 98 -16 19 -19 36 -18 104 l2 82 78 3
c71 3 81 1 108 -23 38 -31 59 -32 87 -2 29 30 28 62 -3 92 -30 31 -46 31 -82
1 -22 -19 -45 -25 -106 -31 l-77 -7 0 90 c0 67 4 93 15 102 49 41 -9 121 -72
99 -7 -2 -84 37 -172 86 -134 75 -161 94 -161 113 0 13 -11 33 -25 46 l-25 23
0 221 c0 121 4 223 9 226 11 7 227 54 314 68 l67 12 125 -65 c69 -35 124 -67
122 -71 -1 -4 -51 -59 -110 -122 -89 -96 -114 -116 -137 -116 -53 0 -82 -67
-44 -104 38 -38 104 -7 104 50 0 23 23 53 116 151 l115 123 57 -30 c31 -16 93
-51 137 -77 l79 -48 108 -170 109 -170 -7 -150 c-4 -82 -12 -220 -18 -305
l-11 -155 -100 125 c-210 263 -245 313 -245 353 0 44 -28 77 -65 77 -32 0 -65
-33 -65 -65 0 -32 33 -65 64 -65 20 0 47 -29 138 -147 62 -82 149 -194 195
-250 l82 -101 35 -134 c42 -157 46 -128 -58 -389 -75 -188 -72 -176 -90 -361
l-14 -136 -59 -96 c-32 -52 -61 -92 -65 -88 -6 7 -75 229 -149 482 -52 178
-53 209 -9 286 18 33 38 66 45 74 7 8 15 33 18 55 l6 40 -34 -40 c-76 -87
-113 -184 -140 -365 -16 -106 -21 -168 -15 -174 17 -17 30 7 41 75 15 90 19
99 31 69 5 -14 47 -155 94 -315 47 -159 98 -335 115 -390 l29 -100 -32 -27
c-18 -15 -58 -47 -88 -71 -54 -42 -200 -244 -200 -276 0 -8 26 -80 59 -160 79
-196 135 -375 157 -496 25 -141 24 -397 0 -530 -25 -133 -25 -139 0 -143 43
-6 178 236 228 409 54 187 61 411 21 619 -34 175 -103 506 -117 559 -10 37 -9
48 6 76 18 32 18 35 -14 148 l-33 116 49 76 c96 150 105 176 120 325 8 74 17
149 20 165 5 25 101 273 109 283 2 2 41 -41 89 -94 l86 -96 0 -98 c0 -141 3
-151 84 -237 l71 -76 0 -116 0 -116 -47 -58 -48 -59 0 -127 c0 -123 -1 -128
-25 -151 -46 -43 -18 -110 44 -110 54 0 81 73 41 107 -18 16 -20 30 -20 144
l0 127 36 44 c53 63 62 92 63 201 1 121 -4 134 -86 218 l-67 69 -3 122 c-4
142 5 121 -110 247 l-92 101 14 41 c8 23 15 57 15 76 l0 35 78 -7 c42 -4 84
-11 92 -15 8 -5 120 -114 248 -243 l232 -234 0 -207 c0 -227 0 -228 62 -292
30 -32 38 -47 33 -63 -12 -40 35 -89 75 -76 77 24 58 147 -21 131 -24 -4 -34
1 -68 40 l-40 46 -3 218 -3 219 -50 51 c-29 29 -43 50 -35 51 248 10 258 2
259 -230 l1 -64 113 -114 c83 -84 116 -111 126 -104 11 7 -11 35 -95 121
l-109 112 -5 124 -5 124 -33 32 -32 33 -136 1 -135 0 -147 151 c-231 235 -219
227 -320 233 l-86 5 -17 59 -18 58 31 -6 c17 -3 78 -6 136 -6 l105 0 176 -174
c97 -95 186 -179 198 -185 13 -7 78 -11 164 -11 l142 0 147 -146 c123 -121
146 -149 142 -169 -5 -28 36 -75 65 -75 33 0 63 29 63 61 0 39 -32 69 -73 69
-28 0 -48 15 -152 121 -185 187 -170 179 -341 179 l-143 0 -48 42 c-26 22
-106 101 -178 174 -71 73 -143 138 -159 144 -17 6 -83 10 -155 9 l-125 -1 -9
33 c-9 34 -8 87 13 454 15 258 1 230 160 326 232 141 614 365 633 372 9 4 72
-11 140 -32 67 -22 248 -76 402 -121 l280 -81 373 -184 c342 -169 372 -186
372 -209 0 -17 -31 -63 -98 -143 -185 -223 -201 -246 -279 -416 -147 -318
-135 -276 -140 -492 -3 -110 -9 -195 -15 -203 -6 -7 -65 -47 -132 -89 -66 -42
-184 -116 -261 -166 -314 -201 -290 -178 -403 -403 -39 -78 -78 -144 -87 -148
-9 -3 -65 -6 -124 -6 -134 0 -151 -10 -347 -194 -173 -162 -225 -186 -334
-156 -84 23 -99 53 -211 430 -82 277 -108 350 -122 350 -8 0 -8 -3 0 -11 8 -8
8 -19 0 -39 -12 -31 -18 -7 105 -419 79 -267 98 -304 180 -345 71 -36 168 -36
236 -2 27 14 110 85 195 166 175 168 180 170 331 170 143 0 143 0 222 170 109
232 78 205 578 520 109 69 208 137 218 151 18 23 20 49 25 224 l6 199 101 218
100 219 149 182 c123 151 154 183 179 187 91 15 78 140 -14 140 -16 0 -132 90
-368 286 -190 158 -474 394 -632 526 -224 185 -288 244 -288 262 0 26 -38 66
-64 66 -9 0 -29 -13 -44 -28 -25 -26 -57 -35 -372 -107 -1131 -257 -1068 -239
-1145 -322 l-40 -44 -139 72 c-161 83 -137 81 -407 28 l-155 -31 -105 22
c-307 65 -279 66 -444 -20 l-137 -73 -52 57 -51 57 -135 34 c-164 40 -501 119
-958 224 -309 72 -345 82 -363 105 -24 30 -48 33 -78 9z m526 -183 c219 -51
528 -123 687 -160 l288 -68 44 -43 c24 -24 44 -46 44 -49 0 -4 -48 -33 -106
-65 -136 -74 -154 -90 -221 -194 -30 -47 -76 -119 -102 -158 -25 -40 -51 -73
-57 -73 -7 0 -166 93 -355 206 -399 239 -412 246 -453 246 -17 0 -121 -27
-231 -60 -110 -33 -293 -88 -407 -121 -199 -58 -218 -66 -507 -211 -166 -82
-301 -148 -301 -146 0 4 263 227 760 642 318 266 400 330 422 329 22 -1 39
-17 89 -88 33 -47 67 -88 76 -91 8 -3 123 -31 256 -60 557 -126 647 -151 674
-185 41 -52 113 -32 113 31 0 58 -58 88 -104 55 -15 -11 -87 3 -474 93 l-456
106 -49 65 c-68 89 -75 103 -48 96 11 -3 199 -46 418 -97z m4043 94 c0 -9 -87
-129 -107 -146 -10 -9 -202 -58 -457 -118 -242 -56 -445 -104 -451 -106 -7 -3
-18 2 -25 11 -32 39 -110 5 -110 -49 0 -27 39 -66 65 -66 21 0 65 33 65 50 0
13 -58 -2 750 186 190 44 174 36 245 133 73 101 95 105 171 38 27 -24 168
-142 314 -262 415 -344 753 -626 775 -647 20 -19 -170 69 -442 206 -84 42
-190 87 -235 100 -293 86 -548 162 -642 192 -76 24 -118 33 -138 28 -17 -3
-195 -105 -396 -227 -202 -121 -374 -222 -384 -225 -17 -4 -70 70 -183 257
-45 73 -63 88 -205 166 -58 32 -107 60 -109 62 -11 9 85 93 113 98 44 9 343
78 601 140 121 29 290 69 375 89 85 20 209 49 275 65 140 34 135 33 135 25z
m-3370 -389 c17 -20 5 -45 -20 -45 -11 0 -23 7 -26 15 -6 15 11 45 26 45 4 0
13 -7 20 -15z m2305 -15 c0 -16 -6 -26 -18 -28 -19 -4 -32 20 -23 44 9 25 41
13 41 -16z m-3108 -142 c50 -29 226 -134 391 -233 l300 -180 6 -105 c4 -58 14
-205 22 -328 12 -168 13 -231 4 -256 l-11 -34 -144 -4 -145 -3 -183 -182 -182
-183 -150 0 c-179 0 -155 12 -329 -167 -121 -125 -131 -133 -167 -133 -63 0
-96 -52 -62 -99 39 -51 113 -30 113 32 0 28 19 51 147 179 l148 148 143 0
c105 0 150 4 171 14 15 8 101 91 191 183 l163 168 136 5 c75 3 137 5 139 4 2
-1 -4 -27 -13 -58 l-16 -56 -87 0 -86 0 -191 -190 -191 -190 -122 0 c-195 0
-222 -25 -222 -204 l0 -109 -105 -108 c-58 -59 -105 -113 -105 -119 0 -33 53
6 147 107 l103 112 0 112 c0 109 1 114 27 141 26 27 30 28 132 28 l105 0 -41
-42 c-63 -66 -63 -67 -63 -293 l0 -205 -41 -45 c-33 -36 -46 -44 -65 -39 -28
7 -74 -34 -74 -66 0 -24 42 -70 63 -70 31 0 67 41 67 75 0 18 7 39 17 46 9 8
29 32 45 53 l28 39 0 210 0 210 108 111 c60 61 164 169 233 239 144 149 156
157 244 157 64 0 65 -1 65 -27 0 -14 7 -50 17 -79 l16 -52 -94 -102 c-109
-118 -107 -112 -108 -252 l-1 -108 -64 -67 c-85 -91 -86 -94 -86 -223 0 -121
3 -131 62 -201 l38 -45 0 -125 c0 -113 -2 -125 -20 -137 -44 -27 -14 -112 39
-112 66 1 90 70 41 115 -18 16 -20 31 -20 137 0 125 -8 155 -50 193 -41 37
-50 69 -50 177 0 117 1 118 86 209 61 65 62 69 66 211 l3 106 81 88 c44 48 85
89 90 91 16 5 114 -249 119 -307 2 -27 0 -49 -4 -47 -14 4 -261 -262 -261
-281 0 -10 -11 -29 -25 -42 -30 -28 -32 -63 -5 -90 56 -56 138 32 84 91 -25
28 -10 52 94 161 54 55 102 112 109 126 15 35 20 20 28 -91 4 -59 13 -103 27
-133 l22 -43 -63 -208 c-117 -388 -161 -520 -183 -548 -50 -64 -169 -84 -246
-42 -23 12 -106 84 -186 159 -183 173 -192 178 -339 178 -135 0 -124 -8 -191
140 -64 140 -109 213 -154 248 -40 31 -461 301 -580 371 -40 24 -76 49 -80 55
-4 6 -9 101 -13 211 l-5 200 -96 212 c-109 243 -104 235 -278 447 -101 122
-130 164 -128 183 3 22 49 48 363 208 338 171 370 185 520 228 211 61 558 163
615 181 25 8 47 15 50 15 3 1 47 -23 97 -51z m1963 -416 c41 14 343 -155 348
-195 2 -14 12 -33 23 -43 29 -26 29 -383 0 -401 -11 -7 -21 -24 -23 -39 -4
-33 -322 -224 -341 -205 -13 13 -57 14 -76 2 -24 -15 -323 167 -332 203 -5 17
-15 34 -24 38 -26 15 -22 381 5 408 11 11 20 30 20 43 0 18 28 38 161 113 150
85 163 91 186 79 18 -10 33 -10 53 -3z m-752 -105 c4 -20 -25 -34 -40 -19 -15
15 -1 44 19 40 10 -2 19 -11 21 -21z m1490 0 c4 -20 -25 -34 -40 -19 -15 15
-1 44 19 40 10 -2 19 -11 21 -21z m-1428 -312 c14 -17 -2 -45 -27 -45 -19 0
-28 27 -13 45 16 19 24 19 40 0z m1365 -15 c0 -16 -6 -26 -18 -28 -19 -4 -32
20 -23 44 9 25 41 13 41 -16z m-3215 -1020 c0 -24 -26 -38 -42 -22 -16 16 -2
42 22 42 13 0 20 -7 20 -20z m5070 -5 c0 -18 -5 -25 -19 -25 -23 0 -35 15 -27
35 10 26 46 18 46 -10z m-4610 -525 c0 -27 -19 -35 -38 -17 -12 13 -13 19 -3
31 16 19 41 10 41 -14z m4148 6 c6 -29 -15 -43 -35 -24 -14 14 -14 20 -3 33
16 19 34 15 38 -9z m-1053 -946 c29 -183 16 -385 -36 -546 -27 -84 -50 -131
-35 -71 48 193 18 559 -69 825 -33 104 -35 114 -21 134 32 45 3 98 -54 98 -64
0 -77 -79 -20 -120 103 -73 180 -683 117 -925 -13 -49 -14 -46 -20 110 -11
250 -38 361 -172 699 l-67 169 69 101 c41 61 89 118 122 144 l54 44 58 -283
c32 -156 65 -327 74 -379z m-1894 615 c50 -37 179 -215 179 -247 0 -9 -24 -76
-54 -150 -132 -325 -165 -462 -175 -723 -6 -167 -6 -169 -19 -115 -55 231 -31
542 63 848 14 45 30 82 35 82 41 0 64 78 33 112 -51 57 -126 -11 -92 -85 9
-19 5 -43 -20 -123 -82 -264 -110 -565 -75 -804 l5 -35 -15 26 c-45 79 -82
306 -72 449 7 112 11 135 82 477 30 145 54 276 54 293 0 39 12 38 71 -5z
m-596 -70 c0 -13 -8 -21 -22 -23 -23 -3 -33 25 -16 42 13 13 38 1 38 -19z
m2943 2 c4 -20 -25 -34 -40 -19 -15 15 -1 44 19 40 10 -2 19 -11 21 -21z m37
-1322 c0 -30 -39 -27 -43 3 -3 20 0 23 20 20 15 -2 23 -10 23 -23z"/>
<path d="M1445 6478 c-11 -6 -58 -42 -105 -79 -66 -54 -89 -67 -107 -63 -58
15 -100 -69 -55 -109 41 -37 102 -11 102 43 0 23 15 41 91 104 50 42 94 76 98
76 7 0 315 -69 528 -119 131 -30 132 -31 268 -121 121 -80 175 -106 175 -82 0
4 -35 30 -78 59 -42 28 -110 74 -150 101 -42 30 -92 55 -120 61 -26 6 -175 40
-331 76 -321 73 -290 68 -316 53z m-198 -194 c3 -8 -1 -22 -9 -30 -19 -19 -55
4 -45 30 8 21 46 21 54 0z"/>
<path d="M5920 6439 c-118 -27 -265 -61 -327 -75 -112 -25 -113 -26 -255 -125
-79 -55 -144 -104 -146 -109 -10 -27 44 -2 159 75 70 46 138 89 151 95 42 18
650 150 662 143 6 -4 48 -38 94 -75 67 -56 82 -74 82 -97 0 -59 72 -82 109
-35 26 34 26 45 -1 79 -17 22 -27 26 -53 22 -28 -5 -42 3 -106 55 -81 67 -128
99 -144 97 -5 -1 -107 -23 -225 -50z m505 -164 c0 -23 -34 -33 -45 -14 -13 20
1 40 24 37 13 -2 21 -10 21 -23z"/>
<path d="M1731 6044 c-27 -34 -26 -50 4 -79 30 -30 45 -31 79 -4 45 35 68 21
251 -158 94 -91 180 -169 193 -174 32 -12 253 -11 272 1 31 20 -14 30 -139 30
l-125 0 -175 174 c-152 149 -181 174 -216 180 -21 4 -49 19 -62 32 -29 31 -56
30 -82 -2z"/>
<path d="M1175 5945 c-43 -42 -19 -108 41 -107 22 0 46 -16 101 -69 87 -82 70
-78 320 -81 l202 -3 56 -55 c30 -30 55 -58 55 -62 0 -5 -150 -8 -333 -8 -385
2 -342 -10 -466 121 -59 63 -81 94 -81 113 0 56 -77 88 -113 48 -41 -45 -9
-112 54 -112 30 0 46 -11 124 -91 118 -119 118 -119 267 -119 l123 0 -136
-135 -135 -135 -225 0 -225 0 -62 63 c-49 49 -62 69 -62 93 0 33 -35 74 -62
74 -8 0 -27 -9 -42 -21 -50 -39 -24 -109 40 -109 23 0 42 -13 84 -56 85 -86
78 -84 330 -84 172 0 227 3 248 14 15 8 90 78 167 155 l140 141 210 0 211 0
49 -51 c78 -79 76 -79 310 -79 191 0 206 1 203 18 -3 15 -24 18 -208 23 -113
3 -207 7 -209 7 -2 1 -65 63 -141 137 -75 74 -149 139 -164 145 -16 6 -113 10
-229 10 l-203 0 -67 68 c-52 53 -67 74 -67 97 0 36 -8 48 -37 64 -31 16 -41
14 -68 -14z m65 -31 c21 -25 -13 -55 -36 -32 -19 18 -12 48 9 48 8 0 20 -7 27
-16z m-212 -117 c4 -20 -25 -34 -40 -19 -15 15 -1 44 19 40 10 -2 19 -11 21
-21z m-390 -381 c4 -21 -14 -37 -35 -29 -14 5 -18 35 -6 47 12 12 38 1 41 -18z"/>
<path d="M1519 5205 c-63 -64 -123 -122 -134 -128 -12 -6 -83 -11 -174 -12
l-154 -1 -48 -51 c-36 -38 -49 -59 -49 -81 0 -16 -9 -37 -20 -47 -39 -35 -14
-105 37 -105 44 0 71 72 38 100 -26 22 -18 67 19 108 l34 37 159 5 c93 3 166
10 178 17 41 23 248 254 238 264 -7 7 -48 -28 -124 -106z"/>
<path d="M2192 5290 c-37 -16 -326 -314 -308 -318 15 -3 206 166 214 189 2 5
29 30 59 54 l55 45 185 0 c170 0 184 1 181 18 -3 15 -21 17 -183 19 -99 1
-190 -2 -203 -7z"/>
<path d="M2274 5171 c-12 -5 -93 -80 -179 -165 l-157 -156 -277 -1 c-390 -1
-343 16 -541 -184 -115 -116 -139 -135 -166 -135 -39 0 -64 -27 -64 -68 0 -33
29 -62 63 -62 29 0 70 47 63 73 -5 18 21 48 147 175 l152 152 285 0 c157 0
303 5 325 10 34 7 65 34 197 169 l158 161 142 0 c131 0 183 8 166 25 -11 11
-291 16 -314 6z m-1298 -692 c3 -6 -1 -18 -9 -27 -19 -18 -50 0 -40 24 6 17
39 19 49 3z"/>
<path d="M2077 4378 c-27 -22 -31 -61 -8 -90 20 -25 21 -39 21 -303 l0 -277
-25 -30 c-31 -37 -31 -53 0 -83 61 -62 143 19 83 82 -31 33 -29 572 3 604 53
53 -14 142 -74 97z m51 -741 c4 -20 -25 -34 -40 -19 -15 15 -1 44 19 40 10 -2
19 -11 21 -21z"/>
<path d="M3767 5392 c-39 -42 -9 -112 46 -112 55 0 84 61 51 108 -19 28 -74
30 -97 4z"/>
<path d="M5797 6035 c-15 -14 -40 -25 -55 -25 -22 0 -62 -34 -202 -175 l-174
-174 -136 -3 c-112 -3 -135 -6 -135 -18 0 -13 22 -15 142 -15 l142 0 174 173
c158 156 176 172 208 172 19 0 43 -7 53 -15 42 -32 96 -5 96 47 0 56 -65 75
-113 33z"/>
<path d="M6357 5942 c-10 -10 -17 -32 -17 -49 0 -24 -14 -45 -63 -97 l-63 -66
-206 0 c-114 0 -218 -4 -231 -9 -14 -6 -72 -57 -129 -114 -56 -58 -121 -120
-142 -138 l-39 -34 -201 -5 c-170 -4 -201 -7 -201 -20 0 -13 29 -15 190 -18
230 -3 223 -5 300 69 l62 59 209 0 209 0 125 -126 c69 -69 143 -139 164 -155
l39 -29 224 0 c260 0 264 1 341 84 41 45 57 56 73 51 51 -16 92 61 57 107 -39
51 -118 6 -118 -66 0 -15 -20 -42 -59 -79 l-60 -57 -226 0 -226 0 -132 133
-131 132 129 5 c151 6 142 1 256 123 73 79 84 87 118 87 69 0 100 53 61 103
-38 48 -110 25 -110 -35 0 -26 -17 -48 -100 -132 l-99 -101 -346 -3 c-195 -2
-345 0 -345 5 0 5 25 33 55 63 l56 55 217 5 c243 6 231 2 316 89 33 33 63 58
68 55 17 -11 58 6 74 31 40 61 -50 131 -99 77z m71 -45 c2 -9 -4 -20 -12 -23
-21 -8 -46 13 -39 32 8 20 47 13 51 -9z m217 -102 c0 -13 -8 -21 -22 -23 -23
-3 -33 25 -16 42 13 13 38 1 38 -19z m385 -371 c22 -25 -13 -55 -37 -32 -16
17 -5 48 17 48 4 0 13 -7 20 -16z"/>
<path d="M5975 5310 c-4 -6 52 -70 124 -143 l130 -132 160 -5 160 -5 35 -34
c46 -44 54 -82 27 -117 -26 -33 -26 -49 -1 -74 57 -57 131 17 81 81 -10 13
-21 38 -25 56 -8 37 -67 100 -110 118 -20 8 -82 13 -171 14 l-139 1 -126 125
c-131 129 -135 132 -145 115z"/>
<path d="M5050 5285 c-17 -21 8 -24 207 -27 l172 -3 144 -142 c125 -124 177
-164 177 -135 0 16 -296 302 -323 312 -46 17 -362 13 -377 -5z"/>
<path d="M5073 5173 c-18 -2 -33 -8 -33 -12 0 -16 44 -21 175 -21 l130 0 157
-160 c86 -88 169 -165 183 -170 15 -6 150 -10 323 -10 l297 0 158 -158 c87
-87 155 -161 151 -164 -23 -23 40 -84 75 -73 79 25 63 125 -20 125 -30 0 -49
15 -184 150 -182 181 -146 170 -527 169 l-271 -1 -156 155 c-86 85 -166 160
-178 166 -21 10 -207 13 -280 4z m1627 -703 c0 -23 -13 -32 -34 -24 -19 7 -21
25 -5 41 16 16 39 5 39 -17z"/>
<path d="M2868 5159 c-69 -39 -24 -136 53 -116 48 13 203 -133 260 -246 20
-38 54 -161 84 -301 16 -74 21 -84 74 -139 68 -72 67 -62 70 -483 l2 -281 -73
-89 -72 -88 -8 35 c-4 18 -9 57 -12 84 -8 74 -36 258 -41 273 -6 16 -34 15
-41 -1 -3 -8 13 -144 36 -303 23 -159 54 -388 70 -509 54 -408 140 -986 161
-1083 69 -325 253 -594 514 -752 382 -231 777 -234 1112 -9 286 194 447 480
446 794 -1 236 -32 390 -93 458 -34 39 -46 32 -92 -55 -45 -84 -70 -102 -136
-94 -118 14 -145 -37 -83 -156 63 -122 55 -230 -29 -355 -192 -288 -640 -244
-760 74 -59 156 -68 491 -21 768 12 72 57 375 101 674 79 546 82 579 45 564
-16 -5 -15 -4 -46 -213 -29 -205 -23 -198 -102 -105 l-67 78 0 351 0 352 51
49 c65 64 74 83 100 202 55 259 113 367 251 469 50 37 63 42 93 37 64 -10 104
68 57 110 -40 37 -102 9 -102 -46 0 -20 -12 -34 -54 -62 -30 -20 -81 -66 -113
-102 -32 -36 -146 -156 -254 -267 -107 -110 -208 -216 -222 -234 l-27 -34 0
-526 0 -527 155 -150 155 -150 -15 -95 c-87 -558 -100 -698 -85 -893 11 -150
22 -199 65 -292 168 -366 689 -369 869 -5 63 128 61 258 -5 362 -39 60 -33 68
48 68 80 0 106 16 161 101 l39 60 16 -38 c36 -92 63 -359 47 -471 -40 -279
-180 -497 -427 -664 -185 -124 -429 -175 -660 -138 -268 43 -556 227 -700 448
-158 241 -170 286 -297 1177 l-54 370 157 158 156 157 0 423 c0 232 -1 471 -3
532 l-3 109 -217 221 c-119 121 -238 248 -263 281 -27 35 -74 79 -112 104 -54
37 -66 50 -67 72 0 45 -55 79 -92 57z m52 -53 c0 -28 -24 -41 -40 -21 -16 20
-5 45 20 45 14 0 20 -7 20 -24z m1835 -1 c0 -22 -31 -33 -47 -17 -17 17 -1 44
24 40 15 -2 23 -10 23 -23z m-1167 -1213 l2 -517 -139 -139 c-93 -93 -142
-135 -145 -125 -2 8 -12 67 -20 133 l-16 118 54 62 c29 33 70 83 90 109 l36
49 0 338 c0 212 -4 349 -10 366 -6 15 -36 56 -66 90 -54 62 -55 65 -85 194
-16 72 -34 143 -40 158 -6 17 52 -35 163 -146 l173 -172 3 -518z m773 777
c-11 -41 -25 -101 -31 -134 -17 -92 -18 -94 -85 -165 l-62 -66 -5 -224 c-3
-124 -4 -287 -3 -362 2 -157 0 -152 116 -282 l61 -70 -6 -54 c-14 -118 -29
-202 -36 -202 -4 0 -69 60 -144 133 l-136 132 1 480 c0 264 4 500 9 524 7 39
24 60 171 207 90 90 165 162 166 160 2 -2 -5 -37 -16 -77z"/>
<path d="M2710 4935 c-17 -21 9 -32 115 -45 55 -7 109 -17 120 -22 l20 -9 -20
17 c-50 41 -215 83 -235 59z"/>
<path d="M4832 4935 c-62 -14 -172 -58 -172 -70 0 -3 5 -3 12 1 6 4 30 9 52
10 120 9 207 38 192 63 -8 13 -4 13 -84 -4z"/>
<path d="M2755 4830 c-8 -13 51 -144 74 -164 20 -18 146 -66 173 -66 40 0 10
26 -61 52 -90 33 -103 44 -140 124 -31 66 -35 71 -46 54z"/>
<path d="M4852 4827 c-6 -6 -21 -37 -35 -68 -29 -65 -48 -81 -134 -110 -98
-32 -104 -65 -5 -35 124 39 139 54 193 193 9 25 -3 39 -19 20z"/>
<path d="M2770 4596 c0 -37 188 -132 212 -108 16 16 1 30 -45 43 -23 6 -70 26
-104 45 -44 23 -63 29 -63 20z"/>
<path d="M4800 4579 c-24 -16 -68 -37 -98 -45 -48 -14 -74 -36 -59 -50 18 -18
189 62 207 96 16 31 -3 31 -50 -1z"/>
<path d="M5475 4365 c-32 -31 -31 -50 0 -81 l25 -25 0 -279 c0 -267 -1 -281
-20 -300 -57 -57 18 -142 80 -92 29 23 29 66 1 96 -20 22 -21 31 -21 303 0
237 2 282 15 293 23 19 19 76 -7 94 -31 22 -45 20 -73 -9z"/>
<path d="M4930 4284 c0 -9 47 -67 105 -129 109 -117 118 -136 89 -180 -38 -59
43 -128 89 -77 23 25 21 68 -3 92 -11 11 -22 31 -26 46 -6 25 -228 264 -245
264 -5 0 -9 -7 -9 -16z"/>
<path d="M3132 4153 c-24 -9 -33 -52 -18 -81 19 -38 -77 -333 -120 -367 -48
-38 -24 -115 36 -115 52 0 77 61 45 107 -24 35 75 335 115 350 57 21 42 114
-18 112 -15 0 -33 -3 -40 -6z m-84 -501 c3 -16 -2 -22 -17 -22 -24 0 -33 13
-25 35 9 23 38 14 42 -13z"/>
<path d="M4417 4142 c-32 -35 -15 -89 33 -104 9 -3 34 -67 65 -165 51 -157 51
-160 33 -183 -34 -42 -7 -100 47 -100 61 0 83 65 36 109 -36 34 -141 345 -122
364 17 17 13 62 -7 80 -24 22 -65 21 -85 -1z m201 -485 c4 -20 -25 -34 -40
-19 -15 15 -1 44 19 40 10 -2 19 -11 21 -21z"/>
<path d="M3567 2922 c-22 -24 -21 -65 1 -86 17 -15 19 -41 25 -284 12 -543 45
-740 158 -951 93 -174 254 -316 464 -412 189 -85 472 -88 658 -5 95 42 317
209 317 238 0 6 -8 4 -18 -5 -10 -10 -21 -17 -25 -17 -3 0 -46 -30 -94 -66
-283 -211 -620 -233 -918 -61 -182 105 -276 202 -360 372 -100 201 -131 391
-141 880 -7 288 -7 290 15 309 42 38 16 106 -41 106 -14 0 -32 -8 -41 -18z"/>
<path d="M3966 2918 c-21 -30 -20 -50 4 -81 19 -24 20 -40 20 -265 0 -517 41
-738 171 -928 77 -113 227 -223 339 -248 113 -26 331 -19 361 11 5 5 -65 9
-154 9 -236 0 -316 32 -454 177 -169 179 -211 348 -220 890 l-6 328 23 24 c25
26 29 67 10 90 -19 23 -76 19 -94 -7z"/>
</g>
</svg>
