<svg xmlns="http://www.w3.org/2000/svg" viewBox="0 0 2700 700" preserveAspectRatio="xMidYMid meet">
<g transform="translate(-10.000000,685.000000) scale(0.100000,-0.100000)"
fill="#00e0c0" stroke="none">
<path d="M1481 6833 c-12 -10 -23 -30 -24 -44 -2 -21 -100 -108 -516 -455
-283 -236 -566 -473 -630 -526 -66 -56 -125 -98 -137 -98 -34 0 -74 -38 -74
-69 0 -39 26 -71 59 -71 23 0 42 -19 122 -117 52 -64 120 -148 151 -187 46
-56 78 -116 155 -286 l97 -215 5 -200 c4 -133 10 -207 19 -222 10 -18 178
-129 375 -248 137 -82 318 -209 336 -234 24 -33 141 -274 141 -290 0 -5 13
-23 29 -40 l29 -31 122 0 c151 0 141 5 321 -165 175 -165 207 -186 298 -193
104 -7 178 30 228 115 38 65 219 672 209 699 -13 34 16 -1 54 -65 l40 -68 -30
-98 c-34 -111 -37 -141 -14 -166 14 -16 14 -25 -5 -101 -120 -487 -161 -809
-126 -993 43 -233 222 -600 274 -566 13 8 12 25 -5 128 -14 89 -19 164 -18
303 1 266 26 374 171 735 l65 160 -21 40 c-11 22 -44 76 -73 120 -50 76 -72
96 -204 191 l-29 21 51 179 c134 467 188 650 194 657 4 5 13 -31 21 -80 11
-69 18 -88 32 -91 23 -5 22 14 -8 205 -30 183 -59 255 -139 337 -27 28 -42 42
-33 31 8 -11 18 -35 22 -53 4 -19 23 -60 41 -92 43 -72 50 -110 31 -180 -31
-115 -170 -586 -177 -598 -4 -9 -27 22 -67 90 l-60 103 -17 159 -17 159 -79
194 c-44 106 -80 206 -80 221 0 15 15 83 33 152 32 120 36 129 93 196 32 39
120 150 194 247 103 134 140 176 158 176 54 2 77 60 41 105 -41 52 -112 17
-107 -53 1 -34 -8 -50 -82 -147 -174 -227 -254 -324 -260 -317 -4 5 -15 140
-24 301 l-16 292 113 175 112 176 132 74 131 74 90 -92 c128 -132 152 -161
152 -189 0 -51 69 -77 103 -40 38 42 8 102 -49 102 -19 0 -36 8 -48 23 -10 12
-61 65 -113 118 l-95 97 124 66 c69 36 136 66 149 66 22 0 302 -54 342 -66 16
-5 17 -25 17 -240 0 -132 -4 -234 -9 -234 -10 0 -32 -56 -25 -63 3 -3 -68 -47
-157 -98 -135 -77 -169 -92 -200 -90 -61 3 -91 -57 -49 -99 17 -17 20 -33 20
-100 0 -78 0 -80 -25 -81 -124 -3 -136 -1 -159 20 -45 42 -126 3 -110 -53 16
-56 67 -69 113 -31 27 23 37 26 103 23 l73 -3 3 -82 c2 -72 0 -87 -19 -112
-33 -45 -10 -86 49 -87 59 -2 352 -168 352 -200 0 -12 10 -34 22 -49 l22 -28
-2 -1121 c-2 -1446 6 -1608 92 -1858 171 -501 718 -697 1147 -412 199 132 296
295 321 536 9 84 16 116 30 130 38 38 3 108 -54 108 -54 0 -79 -78 -37 -116
20 -18 21 -26 16 -119 -29 -532 -702 -819 -1123 -479 -210 169 -300 386 -333
803 -7 86 -11 574 -11 1334 l0 1200 25 23 c14 13 25 32 25 43 0 23 17 35 195
136 91 52 128 68 154 66 63 -4 92 52 52 98 -16 19 -19 36 -18 104 l2 82 78 3
c71 3 81 1 108 -23 38 -31 59 -32 87 -2 29 30 28 62 -3 92 -30 31 -46 31 -82
1 -22 -19 -45 -25 -106 -31 l-77 -7 0 90 c0 67 4 93 15 102 49 41 -9 121 -72
99 -7 -2 -84 37 -172 86 -134 75 -161 94 -161 113 0 13 -11 33 -25 46 l-25 23
0 221 c0 121 4 223 9 226 11 7 227 54 314 68 l67 12 125 -65 c69 -35 124 -67
122 -71 -1 -4 -51 -59 -110 -122 -89 -96 -114 -116 -137 -116 -53 0 -82 -67
-44 -104 38 -38 104 -7 104 50 0 23 23 53 116 151 l115 123 57 -30 c31 -16 93
-51 137 -77 l79 -48 108 -170 109 -170 -7 -150 c-4 -82 -12 -220 -18 -305
l-11 -155 -100 125 c-210 263 -245 313 -245 353 0 44 -28 77 -65 77 -32 0 -65
-33 -65 -65 0 -32 33 -65 64 -65 20 0 47 -29 138 -147 62 -82 149 -194 195
-250 l82 -101 35 -134 c42 -157 46 -128 -58 -389 -75 -188 -72 -176 -90 -361
l-14 -136 -59 -96 c-32 -52 -61 -92 -65 -88 -6 7 -75 229 -149 482 -52 178
-53 209 -9 286 18 33 38 66 45 74 7 8 15 33 18 55 l6 40 -34 -40 c-76 -87
-113 -184 -140 -365 -16 -106 -21 -168 -15 -174 17 -17 30 7 41 75 15 90 19
99 31 69 5 -14 47 -155 94 -315 47 -159 98 -335 115 -390 l29 -100 -32 -27
c-18 -15 -58 -47 -88 -71 -54 -42 -200 -244 -200 -276 0 -8 26 -80 59 -160 79
-196 135 -375 157 -496 25 -141 24 -397 0 -530 -25 -133 -25 -139 0 -143 43
-6 178 236 228 409 54 187 61 411 21 619 -34 175 -103 506 -117 559 -10 37 -9
48 6 76 18 32 18 35 -14 148 l-33 116 49 76 c96 150 105 176 120 325 8 74 17
149 20 165 5 25 101 273 109 283 2 2 41 -41 89 -94 l86 -96 0 -98 c0 -141 3
-151 84 -237 l71 -76 0 -116 0 -116 -47 -58 -48 -59 0 -127 c0 -123 -1 -128
-25 -151 -46 -43 -18 -110 44 -110 54 0 81 73 41 107 -18 16 -20 30 -20 144
l0 127 36 44 c53 63 62 92 63 201 1 121 -4 134 -86 218 l-67 69 -3 122 c-4
142 5 121 -110 247 l-92 101 14 41 c8 23 15 57 15 76 l0 35 78 -7 c42 -4 84
-11 92 -15 8 -5 120 -114 248 -243 l232 -234 0 -207 c0 -227 0 -228 62 -292
30 -32 38 -47 33 -63 -12 -40 35 -89 75 -76 77 24 58 147 -21 131 -24 -4 -34
1 -68 40 l-40 46 -3 218 -3 219 -50 51 c-29 29 -43 50 -35 51 248 10 258 2
259 -230 l1 -64 113 -114 c83 -84 116 -111 126 -104 11 7 -11 35 -95 121
l-109 112 -5 124 -5 124 -33 32 -32 33 -136 1 -135 0 -147 151 c-231 235 -219
227 -320 233 l-86 5 -17 59 -18 58 31 -6 c17 -3 78 -6 136 -6 l105 0 176 -174
c97 -95 186 -179 198 -185 13 -7 78 -11 164 -11 l142 0 147 -146 c123 -121
146 -149 142 -169 -5 -28 36 -75 65 -75 33 0 63 29 63 61 0 39 -32 69 -73 69
-28 0 -48 15 -152 121 -185 187 -170 179 -341 179 l-143 0 -48 42 c-26 22
-106 101 -178 174 -71 73 -143 138 -159 144 -17 6 -83 10 -155 9 l-125 -1 -9
33 c-9 34 -8 87 13 454 15 258 1 230 160 326 232 141 614 365 633 372 9 4 72
-11 140 -32 67 -22 248 -76 402 -121 l280 -81 373 -184 c342 -169 372 -186
372 -209 0 -17 -31 -63 -98 -143 -185 -223 -201 -246 -279 -416 -147 -318
-135 -276 -140 -492 -3 -110 -9 -195 -15 -203 -6 -7 -65 -47 -132 -89 -66 -42
-184 -116 -261 -166 -314 -201 -290 -178 -403 -403 -39 -78 -78 -144 -87 -148
-9 -3 -65 -6 -124 -6 -134 0 -151 -10 -347 -194 -173 -162 -225 -186 -334
-156 -84 23 -99 53 -211 430 -82 277 -108 350 -122 350 -8 0 -8 -3 0 -11 8 -8
8 -19 0 -39 -12 -31 -18 -7 105 -419 79 -267 98 -304 180 -345 71 -36 168 -36
236 -2 27 14 110 85 195 166 175 168 180 170 331 170 143 0 143 0 222 170 109
232 78 205 578 520 109 69 208 137 218 151 18 23 20 49 25 224 l6 199 101 218
100 219 149 182 c123 151 154 183 179 187 91 15 78 140 -14 140 -16 0 -132 90
-368 286 -190 158 -474 394 -632 526 -224 185 -288 244 -288 262 0 26 -38 66
-64 66 -9 0 -29 -13 -44 -28 -25 -26 -57 -35 -372 -107 -1131 -257 -1068 -239
-1145 -322 l-40 -44 -139 72 c-161 83 -137 81 -407 28 l-155 -31 -105 22
c-307 65 -279 66 -444 -20 l-137 -73 -52 57 -51 57 -135 34 c-164 40 -501 119
-958 224 -309 72 -345 82 -363 105 -24 30 -48 33 -78 9z m526 -183 c219 -51
528 -123 687 -160 l288 -68 44 -43 c24 -24 44 -46 44 -49 0 -4 -48 -33 -106
-65 -136 -74 -154 -90 -221 -194 -30 -47 -76 -119 -102 -158 -25 -40 -51 -73
-57 -73 -7 0 -166 93 -355 206 -399 239 -412 246 -453 246 -17 0 -121 -27
-231 -60 -110 -33 -293 -88 -407 -121 -199 -58 -218 -66 -507 -211 -166 -82
-301 -148 -301 -146 0 4 263 227 760 642 318 266 400 330 422 329 22 -1 39
-17 89 -88 33 -47 67 -88 76 -91 8 -3 123 -31 256 -60 557 -126 647 -151 674
-185 41 -52 113 -32 113 31 0 58 -58 88 -104 55 -15 -11 -87 3 -474 93 l-456
106 -49 65 c-68 89 -75 103 -48 96 11 -3 199 -46 418 -97z m4043 94 c0 -9 -87
-129 -107 -146 -10 -9 -202 -58 -457 -118 -242 -56 -445 -104 -451 -106 -7 -3
-18 2 -25 11 -32 39 -110 5 -110 -49 0 -27 39 -66 65 -66 21 0 65 33 65 50 0
13 -58 -2 750 186 190 44 174 36 245 133 73 101 95 105 171 38 27 -24 168
-142 314 -262 415 -344 753 -626 775 -647 20 -19 -170 69 -442 206 -84 42
-190 87 -235 100 -293 86 -548 162 -642 192 -76 24 -118 33 -138 28 -17 -3
-195 -105 -396 -227 -202 -121 -374 -222 -384 -225 -17 -4 -70 70 -183 257
-45 73 -63 88 -205 166 -58 32 -107 60 -109 62 -11 9 85 93 113 98 44 9 343
78 601 140 121 29 290 69 375 89 85 20 209 49 275 65 140 34 135 33 135 25z
m-3370 -389 c17 -20 5 -45 -20 -45 -11 0 -23 7 -26 15 -6 15 11 45 26 45 4 0
13 -7 20 -15z m2305 -15 c0 -16 -6 -26 -18 -28 -19 -4 -32 20 -23 44 9 25 41
13 41 -16z m-3108 -142 c50 -29 226 -134 391 -233 l300 -180 6 -105 c4 -58 14
-205 22 -328 12 -168 13 -231 4 -256 l-11 -34 -144 -4 -145 -3 -183 -182 -182
-183 -150 0 c-179 0 -155 12 -329 -167 -121 -125 -131 -133 -167 -133 -63 0
-96 -52 -62 -99 39 -51 113 -30 113 32 0 28 19 51 147 179 l148 148 143 0
c105 0 150 4 171 14 15 8 101 91 191 183 l163 168 136 5 c75 3 137 5 139 4 2
-1 -4 -27 -13 -58 l-16 -56 -87 0 -86 0 -191 -190 -191 -190 -122 0 c-195 0
-222 -25 -222 -204 l0 -109 -105 -108 c-58 -59 -105 -113 -105 -119 0 -33 53
6 147 107 l103 112 0 112 c0 109 1 114 27 141 26 27 30 28 132 28 l105 0 -41
-42 c-63 -66 -63 -67 -63 -293 l0 -205 -41 -45 c-33 -36 -46 -44 -65 -39 -28
7 -74 -34 -74 -66 0 -24 42 -70 63 -70 31 0 67 41 67 75 0 18 7 39 17 46 9 8
29 32 45 53 l28 39 0 210 0 210 108 111 c60 61 164 169 233 239 144 149 156
157 244 157 64 0 65 -1 65 -27 0 -14 7 -50 17 -79 l16 -52 -94 -102 c-109
-118 -107 -112 -108 -252 l-1 -108 -64 -67 c-85 -91 -86 -94 -86 -223 0 -121
3 -131 62 -201 l38 -45 0 -125 c0 -113 -2 -125 -20 -137 -44 -27 -14 -112 39
-112 66 1 90 70 41 115 -18 16 -20 31 -20 137 0 125 -8 155 -50 193 -41 37
-50 69 -50 177 0 117 1 118 86 209 61 65 62 69 66 211 l3 106 81 88 c44 48 85
89 90 91 16 5 114 -249 119 -307 2 -27 0 -49 -4 -47 -14 4 -261 -262 -261
-281 0 -10 -11 -29 -25 -42 -30 -28 -32 -63 -5 -90 56 -56 138 32 84 91 -25
28 -10 52 94 161 54 55 102 112 109 126 15 35 20 20 28 -91 4 -59 13 -103 27
-133 l22 -43 -63 -208 c-117 -388 -161 -520 -183 -548 -50 -64 -169 -84 -246
-42 -23 12 -106 84 -186 159 -183 173 -192 178 -339 178 -135 0 -124 -8 -191
140 -64 140 -109 213 -154 248 -40 31 -461 301 -580 371 -40 24 -76 49 -80 55
-4 6 -9 101 -13 211 l-5 200 -96 212 c-109 243 -104 235 -278 447 -101 122
-130 164 -128 183 3 22 49 48 363 208 338 171 370 185 520 228 211 61 558 163
615 181 25 8 47 15 50 15 3 1 47 -23 97 -51z m1963 -416 c41 14 343 -155 348
-195 2 -14 12 -33 23 -43 29 -26 29 -383 0 -401 -11 -7 -21 -24 -23 -39 -4
-33 -322 -224 -341 -205 -13 13 -57 14 -76 2 -24 -15 -323 167 -332 203 -5 17
-15 34 -24 38 -26 15 -22 381 5 408 11 11 20 30 20 43 0 18 28 38 161 113 150
85 163 91 186 79 18 -10 33 -10 53 -3z m-752 -105 c4 -20 -25 -34 -40 -19 -15
15 -1 44 19 40 10 -2 19 -11 21 -21z m1490 0 c4 -20 -25 -34 -40 -19 -15 15
-1 44 19 40 10 -2 19 -11 21 -21z m-1428 -312 c14 -17 -2 -45 -27 -45 -19 0
-28 27 -13 45 16 19 24 19 40 0z m1365 -15 c0 -16 -6 -26 -18 -28 -19 -4 -32
20 -23 44 9 25 41 13 41 -16z m-3215 -1020 c0 -24 -26 -38 -42 -22 -16 16 -2
42 22 42 13 0 20 -7 20 -20z m5070 -5 c0 -18 -5 -25 -19 -25 -23 0 -35 15 -27
35 10 26 46 18 46 -10z m-4610 -525 c0 -27 -19 -35 -38 -17 -12 13 -13 19 -3
31 16 19 41 10 41 -14z m4148 6 c6 -29 -15 -43 -35 -24 -14 14 -14 20 -3 33
16 19 34 15 38 -9z m-1053 -946 c29 -183 16 -385 -36 -546 -27 -84 -50 -131
-35 -71 48 193 18 559 -69 825 -33 104 -35 114 -21 134 32 45 3 98 -54 98 -64
0 -77 -79 -20 -120 103 -73 180 -683 117 -925 -13 -49 -14 -46 -20 110 -11
250 -38 361 -172 699 l-67 169 69 101 c41 61 89 118 122 144 l54 44 58 -283
c32 -156 65 -327 74 -379z m-1894 615 c50 -37 179 -215 179 -247 0 -9 -24 -76
-54 -150 -132 -325 -165 -462 -175 -723 -6 -167 -6 -169 -19 -115 -55 231 -31
542 63 848 14 45 30 82 35 82 41 0 64 78 33 112 -51 57 -126 -11 -92 -85 9
-19 5 -43 -20 -123 -82 -264 -110 -565 -75 -804 l5 -35 -15 26 c-45 79 -82
306 -72 449 7 112 11 135 82 477 30 145 54 276 54 293 0 39 12 38 71 -5z
m-596 -70 c0 -13 -8 -21 -22 -23 -23 -3 -33 25 -16 42 13 13 38 1 38 -19z
m2943 2 c4 -20 -25 -34 -40 -19 -15 15 -1 44 19 40 10 -2 19 -11 21 -21z m37
-1322 c0 -30 -39 -27 -43 3 -3 20 0 23 20 20 15 -2 23 -10 23 -23z"/>
<path d="M1445 6478 c-11 -6 -58 -42 -105 -79 -66 -54 -89 -67 -107 -63 -58
15 -100 -69 -55 -109 41 -37 102 -11 102 43 0 23 15 41 91 104 50 42 94 76 98
76 7 0 315 -69 528 -119 131 -30 132 -31 268 -121 121 -80 175 -106 175 -82 0
4 -35 30 -78 59 -42 28 -110 74 -150 101 -42 30 -92 55 -120 61 -26 6 -175 40
-331 76 -321 73 -290 68 -316 53z m-198 -194 c3 -8 -1 -22 -9 -30 -19 -19 -55
4 -45 30 8 21 46 21 54 0z"/>
<path d="M5920 6439 c-118 -27 -265 -61 -327 -75 -112 -25 -113 -26 -255 -125
-79 -55 -144 -104 -146 -109 -10 -27 44 -2 159 75 70 46 138 89 151 95 42 18
650 150 662 143 6 -4 48 -38 94 -75 67 -56 82 -74 82 -97 0 -59 72 -82 109
-35 26 34 26 45 -1 79 -17 22 -27 26 -53 22 -28 -5 -42 3 -106 55 -81 67 -128
99 -144 97 -5 -1 -107 -23 -225 -50z m505 -164 c0 -23 -34 -33 -45 -14 -13 20
1 40 24 37 13 -2 21 -10 21 -23z"/>
<path d="M1731 6044 c-27 -34 -26 -50 4 -79 30 -30 45 -31 79 -4 45 35 68 21
251 -158 94 -91 180 -169 193 -174 32 -12 253 -11 272 1 31 20 -14 30 -139 30
l-125 0 -175 174 c-152 149 -181 174 -216 180 -21 4 -49 19 -62 32 -29 31 -56
30 -82 -2z"/>
<path d="M1175 5945 c-43 -42 -19 -108 41 -107 22 0 46 -16 101 -69 87 -82 70
-78 320 -81 l202 -3 56 -55 c30 -30 55 -58 55 -62 0 -5 -150 -8 -333 -8 -385
2 -342 -10 -466 121 -59 63 -81 94 -81 113 0 56 -77 88 -113 48 -41 -45 -9
-112 54 -112 30 0 46 -11 124 -91 118 -119 118 -119 267 -119 l123 0 -136
-135 -135 -135 -225 0 -225 0 -62 63 c-49 49 -62 69 -62 93 0 33 -35 74 -62
74 -8 0 -27 -9 -42 -21 -50 -39 -24 -109 40 -109 23 0 42 -13 84 -56 85 -86
78 -84 330 -84 172 0 227 3 248 14 15 8 90 78 167 155 l140 141 210 0 211 0
49 -51 c78 -79 76 -79 310 -79 191 0 206 1 203 18 -3 15 -24 18 -208 23 -113
3 -207 7 -209 7 -2 1 -65 63 -141 137 -75 74 -149 139 -164 145 -16 6 -113 10
-229 10 l-203 0 -67 68 c-52 53 -67 74 -67 97 0 36 -8 48 -37 64 -31 16 -41
14 -68 -14z m65 -31 c21 -25 -13 -55 -36 -32 -19 18 -12 48 9 48 8 0 20 -7 27
-16z m-212 -117 c4 -20 -25 -34 -40 -19 -15 15 -1 44 19 40 10 -2 19 -11 21
-21z m-390 -381 c4 -21 -14 -37 -35 -29 -14 5 -18 35 -6 47 12 12 38 1 41 -18z"/>
<path d="M1519 5205 c-63 -64 -123 -122 -134 -128 -12 -6 -83 -11 -174 -12
l-154 -1 -48 -51 c-36 -38 -49 -59 -49 -81 0 -16 -9 -37 -20 -47 -39 -35 -14
-105 37 -105 44 0 71 72 38 100 -26 22 -18 67 19 108 l34 37 159 5 c93 3 166
10 178 17 41 23 248 254 238 264 -7 7 -48 -28 -124 -106z"/>
<path d="M2192 5290 c-37 -16 -326 -314 -308 -318 15 -3 206 166 214 189 2 5
29 30 59 54 l55 45 185 0 c170 0 184 1 181 18 -3 15 -21 17 -183 19 -99 1
-190 -2 -203 -7z"/>
<path d="M2274 5171 c-12 -5 -93 -80 -179 -165 l-157 -156 -277 -1 c-390 -1
-343 16 -541 -184 -115 -116 -139 -135 -166 -135 -39 0 -64 -27 -64 -68 0 -33
29 -62 63 -62 29 0 70 47 63 73 -5 18 21 48 147 175 l152 152 285 0 c157 0
303 5 325 10 34 7 65 34 197 169 l158 161 142 0 c131 0 183 8 166 25 -11 11
-291 16 -314 6z m-1298 -692 c3 -6 -1 -18 -9 -27 -19 -18 -50 0 -40 24 6 17
39 19 49 3z"/>
<path d="M2077 4378 c-27 -22 -31 -61 -8 -90 20 -25 21 -39 21 -303 l0 -277
-25 -30 c-31 -37 -31 -53 0 -83 61 -62 143 19 83 82 -31 33 -29 572 3 604 53
53 -14 142 -74 97z m51 -741 c4 -20 -25 -34 -40 -19 -15 15 -1 44 19 40 10 -2
19 -11 21 -21z"/>
<path d="M3767 5392 c-39 -42 -9 -112 46 -112 55 0 84 61 51 108 -19 28 -74
30 -97 4z"/>
<path d="M5797 6035 c-15 -14 -40 -25 -55 -25 -22 0 -62 -34 -202 -175 l-174
-174 -136 -3 c-112 -3 -135 -6 -135 -18 0 -13 22 -15 142 -15 l142 0 174 173
c158 156 176 172 208 172 19 0 43 -7 53 -15 42 -32 96 -5 96 47 0 56 -65 75
-113 33z"/>
<path d="M6357 5942 c-10 -10 -17 -32 -17 -49 0 -24 -14 -45 -63 -97 l-63 -66
-206 0 c-114 0 -218 -4 -231 -9 -14 -6 -72 -57 -129 -114 -56 -58 -121 -120
-142 -138 l-39 -34 -201 -5 c-170 -4 -201 -7 -201 -20 0 -13 29 -15 190 -18
230 -3 223 -5 300 69 l62 59 209 0 209 0 125 -126 c69 -69 143 -139 164 -155
l39 -29 224 0 c260 0 264 1 341 84 41 45 57 56 73 51 51 -16 92 61 57 107 -39
51 -118 6 -118 -66 0 -15 -20 -42 -59 -79 l-60 -57 -226 0 -226 0 -132 133
-131 132 129 5 c151 6 142 1 256 123 73 79 84 87 118 87 69 0 100 53 61 103
-38 48 -110 25 -110 -35 0 -26 -17 -48 -100 -132 l-99 -101 -346 -3 c-195 -2
-345 0 -345 5 0 5 25 33 55 63 l56 55 217 5 c243 6 231 2 316 89 33 33 63 58
68 55 17 -11 58 6 74 31 40 61 -50 131 -99 77z m71 -45 c2 -9 -4 -20 -12 -23
-21 -8 -46 13 -39 32 8 20 47 13 51 -9z m217 -102 c0 -13 -8 -21 -22 -23 -23
-3 -33 25 -16 42 13 13 38 1 38 -19z m385 -371 c22 -25 -13 -55 -37 -32 -16
17 -5 48 17 48 4 0 13 -7 20 -16z"/>
<path d="M5975 5310 c-4 -6 52 -70 124 -143 l130 -132 160 -5 160 -5 35 -34
c46 -44 54 -82 27 -117 -26 -33 -26 -49 -1 -74 57 -57 131 17 81 81 -10 13
-21 38 -25 56 -8 37 -67 100 -110 118 -20 8 -82 13 -171 14 l-139 1 -126 125
c-131 129 -135 132 -145 115z"/>
<path d="M5050 5285 c-17 -21 8 -24 207 -27 l172 -3 144 -142 c125 -124 177
-164 177 -135 0 16 -296 302 -323 312 -46 17 -362 13 -377 -5z"/>
<path d="M5073 5173 c-18 -2 -33 -8 -33 -12 0 -16 44 -21 175 -21 l130 0 157
-160 c86 -88 169 -165 183 -170 15 -6 150 -10 323 -10 l297 0 158 -158 c87
-87 155 -161 151 -164 -23 -23 40 -84 75 -73 79 25 63 125 -20 125 -30 0 -49
15 -184 150 -182 181 -146 170 -527 169 l-271 -1 -156 155 c-86 85 -166 160
-178 166 -21 10 -207 13 -280 4z m1627 -703 c0 -23 -13 -32 -34 -24 -19 7 -21
25 -5 41 16 16 39 5 39 -17z"/>
<path d="M2868 5159 c-69 -39 -24 -136 53 -116 48 13 203 -133 260 -246 20
-38 54 -161 84 -301 16 -74 21 -84 74 -139 68 -72 67 -62 70 -483 l2 -281 -73
-89 -72 -88 -8 35 c-4 18 -9 57 -12 84 -8 74 -36 258 -41 273 -6 16 -34 15
-41 -1 -3 -8 13 -144 36 -303 23 -159 54 -388 70 -509 54 -408 140 -986 161
-1083 69 -325 253 -594 514 -752 382 -231 777 -234 1112 -9 286 194 447 480
446 794 -1 236 -32 390 -93 458 -34 39 -46 32 -92 -55 -45 -84 -70 -102 -136
-94 -118 14 -145 -37 -83 -156 63 -122 55 -230 -29 -355 -192 -288 -640 -244
-760 74 -59 156 -68 491 -21 768 12 72 57 375 101 674 79 546 82 579 45 564
-16 -5 -15 -4 -46 -213 -29 -205 -23 -198 -102 -105 l-67 78 0 351 0 352 51
49 c65 64 74 83 100 202 55 259 113 367 251 469 50 37 63 42 93 37 64 -10 104
68 57 110 -40 37 -102 9 -102 -46 0 -20 -12 -34 -54 -62 -30 -20 -81 -66 -113
-102 -32 -36 -146 -156 -254 -267 -107 -110 -208 -216 -222 -234 l-27 -34 0
-526 0 -527 155 -150 155 -150 -15 -95 c-87 -558 -100 -698 -85 -893 11 -150
22 -199 65 -292 168 -366 689 -369 869 -5 63 128 61 258 -5 362 -39 60 -33 68
48 68 80 0 106 16 161 101 l39 60 16 -38 c36 -92 63 -359 47 -471 -40 -279
-180 -497 -427 -664 -185 -124 -429 -175 -660 -138 -268 43 -556 227 -700 448
-158 241 -170 286 -297 1177 l-54 370 157 158 156 157 0 423 c0 232 -1 471 -3
532 l-3 109 -217 221 c-119 121 -238 248 -263 281 -27 35 -74 79 -112 104 -54
37 -66 50 -67 72 0 45 -55 79 -92 57z m52 -53 c0 -28 -24 -41 -40 -21 -16 20
-5 45 20 45 14 0 20 -7 20 -24z m1835 -1 c0 -22 -31 -33 -47 -17 -17 17 -1 44
24 40 15 -2 23 -10 23 -23z m-1167 -1213 l2 -517 -139 -139 c-93 -93 -142
-135 -145 -125 -2 8 -12 67 -20 133 l-16 118 54 62 c29 33 70 83 90 109 l36
49 0 338 c0 212 -4 349 -10 366 -6 15 -36 56 -66 90 -54 62 -55 65 -85 194
-16 72 -34 143 -40 158 -6 17 52 -35 163 -146 l173 -172 3 -518z m773 777
c-11 -41 -25 -101 -31 -134 -17 -92 -18 -94 -85 -165 l-62 -66 -5 -224 c-3
-124 -4 -287 -3 -362 2 -157 0 -152 116 -282 l61 -70 -6 -54 c-14 -118 -29
-202 -36 -202 -4 0 -69 60 -144 133 l-136 132 1 480 c0 264 4 500 9 524 7 39
24 60 171 207 90 90 165 162 166 160 2 -2 -5 -37 -16 -77z"/>
<path d="M2710 4935 c-17 -21 9 -32 115 -45 55 -7 109 -17 120 -22 l20 -9 -20
17 c-50 41 -215 83 -235 59z"/>
<path d="M4832 4935 c-62 -14 -172 -58 -172 -70 0 -3 5 -3 12 1 6 4 30 9 52
10 120 9 207 38 192 63 -8 13 -4 13 -84 -4z"/>
<path d="M2755 4830 c-8 -13 51 -144 74 -164 20 -18 146 -66 173 -66 40 0 10
26 -61 52 -90 33 -103 44 -140 124 -31 66 -35 71 -46 54z"/>
<path d="M4852 4827 c-6 -6 -21 -37 -35 -68 -29 -65 -48 -81 -134 -110 -98
-32 -104 -65 -5 -35 124 39 139 54 193 193 9 25 -3 39 -19 20z"/>
<path d="M2770 4596 c0 -37 188 -132 212 -108 16 16 1 30 -45 43 -23 6 -70 26
-104 45 -44 23 -63 29 -63 20z"/>
<path d="M4800 4579 c-24 -16 -68 -37 -98 -45 -48 -14 -74 -36 -59 -50 18 -18
189 62 207 96 16 31 -3 31 -50 -1z"/>
<path d="M5475 4365 c-32 -31 -31 -50 0 -81 l25 -25 0 -279 c0 -267 -1 -281
-20 -300 -57 -57 18 -142 80 -92 29 23 29 66 1 96 -20 22 -21 31 -21 303 0
237 2 282 15 293 23 19 19 76 -7 94 -31 22 -45 20 -73 -9z"/>
<path d="M4930 4284 c0 -9 47 -67 105 -129 109 -117 118 -136 89 -180 -38 -59
43 -128 89 -77 23 25 21 68 -3 92 -11 11 -22 31 -26 46 -6 25 -228 264 -245
264 -5 0 -9 -7 -9 -16z"/>
<path d="M3132 4153 c-24 -9 -33 -52 -18 -81 19 -38 -77 -333 -120 -367 -48
-38 -24 -115 36 -115 52 0 77 61 45 107 -24 35 75 335 115 350 57 21 42 114
-18 112 -15 0 -33 -3 -40 -6z m-84 -501 c3 -16 -2 -22 -17 -22 -24 0 -33 13
-25 35 9 23 38 14 42 -13z"/>
<path d="M4417 4142 c-32 -35 -15 -89 33 -104 9 -3 34 -67 65 -165 51 -157 51
-160 33 -183 -34 -42 -7 -100 47 -100 61 0 83 65 36 109 -36 34 -141 345 -122
364 17 17 13 62 -7 80 -24 22 -65 21 -85 -1z m201 -485 c4 -20 -25 -34 -40
-19 -15 15 -1 44 19 40 10 -2 19 -11 21 -21z"/>
<path d="M3567 2922 c-22 -24 -21 -65 1 -86 17 -15 19 -41 25 -284 12 -543 45
-740 158 -951 93 -174 254 -316 464 -412 189 -85 472 -88 658 -5 95 42 317
209 317 238 0 6 -8 4 -18 -5 -10 -10 -21 -17 -25 -17 -3 0 -46 -30 -94 -66
-283 -211 -620 -233 -918 -61 -182 105 -276 202 -360 372 -100 201 -131 391
-141 880 -7 288 -7 290 15 309 42 38 16 106 -41 106 -14 0 -32 -8 -41 -18z"/>
<path d="M3966 2918 c-21 -30 -20 -50 4 -81 19 -24 20 -40 20 -265 0 -517 41
-738 171 -928 77 -113 227 -223 339 -248 113 -26 331 -19 361 11 5 5 -65 9
-154 9 -236 0 -316 32 -454 177 -169 179 -211 348 -220 890 l-6 328 23 24 c25
26 29 67 10 90 -19 23 -76 19 -94 -7z"/>
</g>
<!-- i-vory (Syne ExtraBold 800 / 280px, vectorized) -->
<g fill="#f5ecd7">
<path d="M936.52 240.83999999999997V282.84H865.4V240.83999999999997ZM867.36 312.79999999999995H934.56V450.0H867.36Z"/>
<path d="M962.32 352.84H1082.72V394.84H962.32Z"/>
<path d="M1235.92 424.8 1204.0000000000002 424.24 1274.5600000000002 312.79999999999995H1348.7600000000002L1251.0400000000002 450.0H1187.7600000000002L1094.5200000000002 312.79999999999995H1168.44Z"/>
<path d="M1480.96 454.2Q1436.44 454.2 1406.9 446.91999999999996Q1377.3600000000001 439.64 1362.66 423.68Q1347.96 407.72 1347.96 381.68Q1347.96 355.64 1362.66 339.53999999999996Q1377.3600000000001 323.44 1406.9 316.02Q1436.44 308.6 1480.96 308.6Q1525.2 308.6 1554.46 316.02Q1583.72 323.44 1598.2800000000002 339.53999999999996Q1612.8400000000001 355.64 1612.8400000000001 381.68Q1612.8400000000001 407.72 1598.2800000000002 423.68Q1583.72 439.64 1554.46 446.91999999999996Q1525.2 454.2 1480.96 454.2ZM1480.96 413.6Q1501.68 413.6 1515.68 410.1Q1529.68 406.6 1536.96 399.46000000000004Q1544.24 392.32 1544.24 381.68Q1544.24 371.03999999999996 1537.1 363.76Q1529.96 356.48 1515.96 352.84000000000003Q1501.96 349.2 1480.96 349.2Q1460.24 349.2 1445.8200000000002 352.84000000000003Q1431.4 356.48 1423.98 363.62Q1416.5600000000002 370.76 1416.5600000000002 381.68Q1416.5600000000002 392.32 1423.8400000000001 399.46000000000004Q1431.1200000000001 406.6 1445.54 410.1Q1459.96 413.6 1480.96 413.6Z"/>
<path d="M1623.24 312.79999999999995H1690.44V450.0H1623.24ZM1762.68 364.6Q1744.48 364.6 1729.3600000000001 367.96000000000004Q1714.24 371.32 1703.6 375.94Q1692.96 380.56 1687.64 385.03999999999996L1687.0800000000002 371.6Q1687.92 365.72 1691.56 357.74Q1695.2 349.76 1701.3600000000001 341.22Q1707.5200000000002 332.68 1716.48 325.26Q1725.44 317.84 1737.06 313.22Q1748.68 308.6 1762.68 308.6Z"/>
<path d="M1757.6800000000003 312.79999999999995H1829.0800000000002L1910.8400000000001 444.4L1852.88 450.0ZM2015.2800000000002 312.79999999999995 1878.9200000000003 506.0H1810.3200000000002L1868.8400000000001 426.76L1943.88 312.79999999999995Z"/>
</g>
<!-- Studio (Fraunces Italic Light 300 / 220px, vectorized) — FIX-01 shift +380 right to eliminate overlap with i-vory X=865-2015 -->
<g fill="#00e0c0" transform="translate(380 0)">
<path d="M1748.2241571044922 452.2Q1739.8201208496093 452.2 1734.2101040649413 450.1099932861328Q1728.6000872802733 448.0199865722656 1725.1680825805663 445.32497650146485Q1721.7360778808593 442.62996643066407 1719.9100805664061 440.5399597167969Q1718.0840832519532 438.4499530029297 1717.1600872802735 438.4499530029297Q1716.302088623047 438.4499530029297 1714.6630657958985 440.2319577026367Q1713.02404296875 442.01396240234374 1711.1650134277343 444.3129684448242Q1709.3059838867186 446.6119744873047 1707.8099597167968 448.3939791870117Q1706.313935546875 450.17598388671877 1705.7419342041017 450.17598388671877Q1705.3459301757812 450.17598388671877 1705.1699295043945 449.81298187255857Q1704.9939288330079 449.4499798583984 1705.0379315185546 448.89997314453126L1711.3960375976562 407.6498052978516Q1711.550040283203 407.1217932128906 1711.64904296875 406.8797885131836Q1711.748045654297 406.6377838134766 1711.9460510253907 406.6377838134766Q1712.2320550537108 406.6377838134766 1712.3640563964843 406.8577871704101Q1712.4960577392578 407.0777905273437 1712.452061767578 407.58380126953125L1714.234116821289 418.84804565429687Q1716.3901208496093 435.1279852294922 1724.9700973510742 442.82796844482425Q1733.550073852539 450.52795166015625 1746.288018798828 450.52795166015625Q1756.187944946289 450.52795166015625 1763.832887878418 446.21599060058594Q1771.477830810547 441.90402954101563 1776.0318032836915 434.6880859375Q1780.585775756836 427.4721423339844 1781.1357891845703 418.848193359375Q1781.9498187255858 408.9261853027344 1777.274825439453 400.28016784667966Q1772.5998321533202 391.634150390625 1760.2138146972657 381.5801611328125Q1745.5177905273438 369.8101678466797 1739.6767932128905 360.1411450195312Q1733.8357958984375 350.4721221923828 1734.4738079833985 338.8340765380859Q1735.0018200683594 327.68003356933593 1741.5688549804688 317.34001678466797Q1748.1358898925782 307.0 1759.5979483032227 300.35599731445313Q1771.060006713867 293.71199462890627 1786.3060845947266 293.71199462890627Q1799.0661450195312 293.71199462890627 1807.5911651611327 298.0790060424805Q1816.1161853027343 302.4460174560547 1820.3071826171874 309.5190328979492Q1824.4981799316406 316.59204833984376 1824.1021759033204 324.7320617675781Q1823.9041705322265 329.2201275634766 1822.2541302490235 331.60716918945315Q1820.6040899658203 333.9942108154297 1817.8980255126953 333.9942108154297Q1816.1159771728517 333.9942108154297 1814.8949563598635 332.55317657470704Q1813.673935546875 331.11214233398437 1813.0579248046874 327.98807250976563L1811.4299127197266 319.0339959716797Q1808.9659167480468 306.4279919433594 1802.3879550170898 300.6860040283203Q1795.8099932861328 294.94401611328124 1785.6020483398438 294.94401611328124Q1774.2721221923828 294.94401611328124 1765.6591738891602 299.8389926147461Q1757.0462255859375 304.7339691162109 1752.0852517700196 312.78593017578123Q1747.1242779541017 320.83789123535155 1746.5962725830077 330.40784423828126Q1746.0022564697265 341.07787109375 1751.4912322998048 350.2628643798828Q1756.9802081298828 359.44785766601564 1770.3561853027343 370.88783081054686Q1779.8822497558594 378.9178778076172 1785.0852786254882 385.7819207763672Q1790.2883074951171 392.6459637451172 1792.1583074951172 399.03700469970704Q1794.0283074951171 405.42804565429685 1793.4562860107421 412.05008728027343Q1792.6862658691407 424.72204833984375 1786.2512490844726 433.7200302124023Q1779.8162322998046 442.71801208496095 1769.806212158203 447.4590060424805Q1759.7961920166015 452.2 1748.2241571044922 452.2Z"/>
<path d="M1833.9399194335938 358.2819543457031 1823.6879718017578 357.07195434570315Q1823.1819677734375 356.93995300292966 1823.0389657592773 356.7309503173828Q1822.8959637451171 356.5219476318359 1822.8959637451171 356.25794494628906Q1822.8959637451171 355.8839422607422 1823.2039657592773 355.68594024658205Q1823.5119677734376 355.48793823242187 1823.9079718017579 355.48793823242187H1835.98595703125Q1836.86595703125 355.48793823242187 1837.3939590454102 355.31193756103517Q1837.9219610595703 355.1359368896484 1838.4059704589845 354.563935546875L1852.2003491210937 338.6358294677734Q1852.486353149414 338.30582946777344 1852.7943585205078 338.0308294677734Q1853.1023638916015 337.7558294677734 1853.5203692626953 337.7558294677734Q1853.8063732910157 337.7558294677734 1854.0373739624024 337.975832824707Q1854.268374633789 338.19583618164063 1854.268374633789 338.59184020996094Q1854.268374633789 338.9218402099609 1854.1583746337892 339.36184356689455Q1854.048374633789 339.8018469238281 1853.828374633789 340.70384826660154L1828.3303759765624 430.2438952636719Q1825.6463800048828 439.9018804931641 1826.8233813476563 442.9488818359375Q1828.0003826904297 445.9958831787109 1831.5643719482423 445.9958831787109Q1835.5463598632814 445.9958831787109 1839.8803457641602 442.9158898925781Q1844.214331665039 439.8358966064453 1849.406312866211 433.41190734863284Q1849.7583209228517 432.8838952636719 1850.0883209228516 432.68589324951176Q1850.4183209228515 432.4878912353516 1850.594324951172 432.6638885498047Q1850.8803289794923 432.75188720703125 1850.8033309936525 433.13689392089844Q1850.7263330078126 433.52190063476564 1850.374324951172 434.11591674804686Q1847.7123303222656 438.07593017578125 1844.6213162231445 441.3099462890625Q1841.5303021240234 444.54396240234377 1838.1532705688478 446.90897583007813Q1834.776239013672 449.2739892578125 1831.1461920166016 450.51699798583985Q1827.5161450195312 451.7600067138672 1823.6660845947265 451.7600067138672Q1819.156024169922 451.7600067138672 1816.6479953002931 449.9559939575195Q1814.1399664306641 448.15198120117185 1813.809959716797 444.00495971679686Q1813.4799530029297 439.8579382324219 1815.3719610595704 433.0599127197266L1835.3259368896486 363.01197448730466Q1836.0959368896486 360.41597045898436 1835.842931518555 359.4259637451172Q1835.589926147461 358.43595703125 1833.9399194335938 358.2819543457031ZM1845.9522900390625 356.89595703125 1846.7003021240234 355.48793823242187H1870.8342578125Q1871.692269897461 355.48793823242187 1871.692269897461 356.08194763183593Q1871.692269897461 356.4999530029297 1871.2632672119141 356.69795501708984Q1870.8342645263672 356.89595703125 1870.108260498047 356.89595703125Z"/>
<path d="M1947.2665075683594 434.5558428955078Q1947.5525115966798 434.6438415527344 1947.4425115966797 434.97384490966795Q1947.3325115966798 435.30384826660156 1947.0465075683594 435.69985229492187Q1941.4804901123048 443.6199060058594 1935.518408203125 447.6899563598633Q1929.5563262939454 451.7600067138672 1923.968226928711 451.7600067138672Q1919.8541772460937 451.7600067138672 1917.5881564331055 449.69199127197265Q1915.3221356201173 447.6239758300781 1915.3221356201173 443.17995300292966Q1915.3221356201173 439.63795166015626 1916.9281262207032 434.0719677734375Q1918.534116821289 428.50598388671875 1920.701104736328 422.62100402832027Q1922.868092651367 416.73602416992185 1924.6720852661133 411.99503356933593Q1926.4760778808593 407.25404296875 1926.784083251953 405.3840295410156L1927.3120886230467 405.6040295410156Q1921.372088623047 418.2980322265625 1914.7720819091796 427.1530288696289Q1908.1720751953126 436.0080255126953 1901.5720651245117 441.4200201416016Q1894.9720550537108 446.83201477050784 1888.7680456542967 449.2960107421875Q1882.5640362548827 451.7600067138672 1877.2840295410156 451.7600067138672Q1870.772021484375 451.7600067138672 1868.307995300293 448.39401275634765Q1865.843969116211 445.0280187988281 1866.3939456176759 439.0550201416015Q1866.9439221191406 433.082021484375 1869.385923461914 425.40400939941406L1884.983901977539 376.7400201416016Q1888.4158898925782 366.07004699707034 1887.3928945922853 362.78105102539064Q1886.3698992919922 359.49205505371094 1883.3559100341797 359.49205505371094Q1881.0019140625 359.49205505371094 1877.6689288330078 361.5380523681641Q1874.3359436035157 363.5840496826172 1869.5179650878906 369.43603088378904Q1869.1439556884766 369.96404296875 1868.8689556884765 370.1180456542969Q1868.5939556884766 370.27204833984376 1868.3299530029296 370.1840496826172Q1868.1539489746094 370.00805236816404 1868.1869476318361 369.66704498291017Q1868.2199462890626 369.32603759765624 1868.5499530029297 368.73202148437497Q1873.5659368896484 361.25200134277344 1879.2089993286131 357.489966430664Q1884.852061767578 353.72793151855467 1891.1442041015625 353.72793151855467Q1895.5002685546874 353.72793151855467 1897.8212927246093 355.7189422607422Q1900.1423168945312 357.7099530029297 1900.395315551758 361.7139758300781Q1900.6483142089844 365.71799865722653 1898.6463061523436 371.90003356933596L1881.7283679199218 424.8538818359375Q1877.9223840332031 436.6898388671875 1879.4843719482421 440.9358227539062Q1881.0463598632812 445.181806640625 1886.3263330078125 445.181806640625Q1890.132310180664 445.181806640625 1895.9512692260741 442.1128207397461Q1901.7702282714843 439.0438348388672 1908.4581832885742 432.22386840820315Q1915.146138305664 425.4039019775391 1921.6800973510742 414.3159603881836Q1928.2140563964845 403.22801879882815 1933.4280322265624 387.2121087646484Q1935.892021484375 379.71014770507816 1937.0910208129883 375.31013763427734Q1938.2900201416016 370.9101275634766 1938.686024169922 368.5560980224609Q1939.0820281982421 366.2020684814453 1939.0820281982421 364.7280523681641Q1939.0820281982421 363.1440362548828 1938.422021484375 362.20902618408206Q1937.762014770508 361.2740161132813 1937.762014770508 359.7560040283203Q1937.762014770508 357.4459637451172 1940.9960946655274 355.5869476318359Q1944.2301745605469 353.72793151855467 1949.2463397216798 353.72793151855467Q1953.1624243164063 353.72793151855467 1953.7454431152344 355.70795166015625Q1954.3284619140625 357.68797180175784 1952.9864471435546 361.6040362548828L1931.1185223388673 425.79995300292967Q1927.048555908203 437.56987243652344 1927.8515478515624 441.4308563232422Q1928.654539794922 445.2918402099609 1932.0865209960937 445.2918402099609Q1934.5505169677733 445.2918402099609 1937.817508239746 443.1908428955078Q1941.0844995117188 441.0898455810547 1946.0784954833985 435.17185363769534Q1946.3865008544922 434.775849609375 1946.7385021972655 434.57784759521485Q1947.090503540039 434.37984558105467 1947.2665075683594 434.5558428955078Z"/>
<path d="M2033.3561315917968 366.04793823242187 2029.814009399414 365.98194763183596Q2030.7600134277345 361.91194091796876 2028.6150369262696 358.50194763183595Q2026.4700604248048 355.09195434570313 2019.9360778808593 355.09195434570313Q2013.2261114501953 355.09195434570313 2006.4281463623047 358.76597381591796Q1999.630181274414 362.4399932861328 1993.36021484375 368.87502014160157Q1987.090248413086 375.31004699707034 1981.9642779541018 383.5820718383789Q1976.8383074951173 391.8540966796875 1973.3073336791995 401.0501107788086Q1969.7763598632814 410.2461248779297 1968.456380004883 419.55211547851565Q1966.0804162597656 434.55600402832033 1969.160396118164 440.78195098876955Q1972.2403759765625 447.0078979492188 1978.0923236083986 447.0078979492188Q1982.0082873535157 447.0078979492188 1988.1462255859376 442.3329483032227Q1994.2841638183595 437.6579986572266 2001.214093322754 429.0670819091797Q2008.1440228271485 420.4761651611328 2014.4249630737304 408.7392645263672Q2020.7059033203125 397.0023638916016 2024.8198724365234 382.9664605712891L2045.411947631836 311.7741302490234Q2048.3159771728515 301.6980187988281 2054.6740328979495 296.40698791503905Q2061.032088623047 291.11595703125 2073.066131591797 291.11595703125Q2077.7962188720703 291.11595703125 2080.26026184082 292.7439926147461Q2082.72430480957 294.3720281982422 2082.72430480957 296.7040765380859Q2082.72430480957 298.5301208496094 2081.481272583008 299.8281497192383Q2080.238240356445 301.1261785888672 2077.5761920166015 301.1261785888672Q2075.508159790039 301.1261785888672 2073.5501208496094 300.26816314697265Q2071.59208190918 299.4101477050781 2069.6120449829104 298.2441268920898Q2067.6320080566406 297.07810607910153 2065.651981201172 296.220090637207Q2063.6719543457034 295.3620751953125 2061.5599462890627 295.3620751953125Q2057.7759704589844 295.3620751953125 2054.22300201416 299.19004028320313Q2050.670033569336 303.01800537109375 2050.4940362548828 309.221947631836Q2050.4940362548828 311.0259704589844 2050.978069152832 312.5769946289063Q2051.462102050781 314.1280187988281 2052.1331463623046 315.62405303955074Q2052.804190673828 317.1200872802734 2053.3102282714844 318.8251409912109Q2053.816265869141 320.53019470214844 2053.882279968262 322.5762759399414Q2053.948294067383 324.6223571777344 2053.2002618408205 327.3284753417969L2024.3584216308595 426.6800067138672Q2020.9044525146485 438.5379113769531 2021.4544491577149 442.266897277832Q2022.0044458007812 445.9958831787109 2025.5684350585939 445.9958831787109Q2028.0324310302735 445.9958831787109 2031.178418273926 443.9498858642578Q2034.3244055175783 441.90388854980466 2039.1423840332031 436.0519073486328Q2039.5163934326172 435.5238952636719 2039.791393432617 435.32589324951175Q2040.0663934326171 435.12789123535157 2040.3303961181641 435.3038885498047Q2040.6164001464845 435.39188720703123 2040.528401489258 435.77689392089843Q2040.4404028320314 436.16190063476563 2040.110396118164 436.7559167480469Q2036.7664068603517 441.70593017578125 2033.1363833618166 445.02795166015625Q2029.5063598632812 448.34997314453125 2025.700305480957 450.0549899291992Q2021.8942510986328 451.7600067138672 2017.9121691894532 451.7600067138672Q2013.4240899658203 451.7600067138672 2010.883069152832 449.60398254394534Q2008.3420483398438 447.4479583740234 2008.3420483398438 442.91593688964844Q2008.3420483398438 439.9899462890625 2009.2660375976564 435.20498321533205Q2010.190026855469 430.4200201416016 2012.697995300293 421.6311181640625Q2015.2059637451173 412.84221618652344 2019.693901977539 398.0804095458984L2021.0139221191407 398.4324041748047Q2013.3139892578126 415.9662591552734 2004.3710510253907 427.846171875Q1995.4281127929687 439.72608459472656 1986.628143005371 445.7430456542969Q1977.8281732177734 451.7600067138672 1970.4581463623047 451.7600067138672Q1965.4860913085938 451.7600067138672 1961.4600604248049 448.59200469970705Q1957.4340295410157 445.4240026855469 1955.696007385254 438.3290161132812Q1953.9579852294924 431.2340295410156 1955.629959716797 419.5080792236328Q1957.213935546875 407.6500604248047 1963.2969207763672 395.9680355834961Q1969.3799060058595 384.2860107421875 1978.399909362793 374.7159872436523Q1987.4199127197267 365.1459637451172 1997.8369442749024 359.3929483032226Q2008.2539758300782 353.63993286132813 2018.3960443115234 353.63993286132813Q2024.666064453125 353.63993286132813 2028.1200805664062 355.31193084716796Q2031.5740966796875 356.9839288330078 2032.7731094360352 359.7999295043945Q2033.9721221923828 362.6159301757813 2033.3561315917968 366.04793823242187Z"/>
<path d="M2065.524365234375 428.7479180908203Q2062.092377319336 438.8898992919922 2063.027373962402 442.44289123535157Q2063.9623706054685 445.9958831787109 2067.1523571777343 445.9958831787109Q2069.616353149414 445.9958831787109 2072.8943383789065 443.9498858642578Q2076.1723236083985 441.90388854980466 2080.9903021240234 436.0519073486328Q2081.3643115234377 435.5238952636719 2081.6393115234378 435.32589324951175Q2081.9143115234374 435.12789123535157 2082.1783142089844 435.3038885498047Q2082.4643182373047 435.39188720703123 2082.3763195800784 435.77689392089843Q2082.2883209228517 436.16190063476563 2081.9583142089846 436.7559167480469Q2076.9423303222657 444.1259368896484 2071.288267211914 447.94297180175784Q2065.6342041015623 451.7600067138672 2059.3200604248045 451.7600067138672Q2055.2279919433595 451.7600067138672 2052.818969116211 449.812995300293Q2050.4099462890626 447.86598388671877 2050.1129483032228 443.8069610595703Q2049.815950317383 439.74793823242186 2051.90595703125 433.58790466308596L2070.253901977539 379.8639825439453Q2074.25787109375 368.18206176757815 2073.619875793457 364.1890798950195Q2072.981880493164 360.19609802246094 2069.373901977539 360.19609802246094Q2067.0199060058594 360.19609802246094 2063.7529147338864 362.2420953369141Q2060.485923461914 364.2880926513672 2055.3819274902344 370.3160845947266Q2055.0739221191407 370.7120886230469 2054.776920776367 370.86609130859375Q2054.4799194335938 371.0200939941406 2054.1939154052734 370.9320953369141Q2054.017911376953 370.75609802246095 2054.0839120483397 370.48109466552734Q2054.1499127197267 370.2060913085937 2054.4139154052737 369.7880859375Q2059.979932861328 361.78003356933596 2065.7990060424804 357.7539825439453Q2071.618079223633 353.72793151855467 2077.2281799316406 353.72793151855467Q2081.1882269287107 353.72793151855467 2083.652253112793 355.72994628906247Q2086.116279296875 357.7319610595703 2086.457290039062 362.109983215332Q2086.79830078125 366.4880053710938 2084.334298095703 373.66002685546874ZM2084.4220751953126 334.7200939941406Q2081.6939959716797 334.7200939941406 2080.3959469604492 333.21305572509766Q2079.097897949219 331.70601745605467 2079.097897949219 329.39595703125Q2079.097897949219 326.4919140625 2080.8689221191407 322.3338952636719Q2082.6399462890627 318.1758764648438 2085.3789959716796 315.00787109375Q2088.118045654297 311.8398657226562 2091.1321221923827 311.8398657226562Q2094.1462255859374 311.8398657226562 2095.3672732543946 313.3909033203125Q2096.5883209228514 314.94194091796874 2096.5883209228514 317.1420013427734Q2096.5883209228514 320.72804565429686 2094.8832974243164 324.8420651245117Q2093.1782739257815 328.9560845947266 2090.3842208862307 331.8380892944336Q2087.59016784668 334.7200939941406 2084.4220751953126 334.7200939941406Z"/>
<path d="M2146.2681396484377 353.8599127197266Q2156.146212158203 354.3879046630859 2162.8452719116212 360.10790466308595Q2169.5443316650394 365.8279046630859 2172.2063732910156 376.13490600585936Q2174.868414916992 386.4419073486328 2172.5584283447265 400.7419006347656Q2170.908435058594 411.4119207763672 2166.310433044434 420.68493957519536Q2161.712431030274 429.95795837402346 2154.9254095458987 436.920973815918Q2148.1383880615235 443.8839892578125 2139.8333377075196 447.82199798583986Q2131.5282873535157 451.7600067138672 2122.4641973876955 451.7600067138672Q2113.136131591797 451.7600067138672 2105.7770852661133 446.6999966430664Q2098.41803894043 441.6399865722656 2094.975010070801 431.5529818725586Q2091.531981201172 421.4659771728516 2093.8199664306644 406.4839959716797Q2095.75595703125 394.3179919433594 2100.8159536743165 384.46198120117185Q2105.875950317383 374.60597045898436 2113.102965087891 367.5769577026367Q2120.3299798583985 360.5479449462891 2128.8660208129886 356.9399328613281Q2137.4020617675783 353.33192077636716 2146.2681396484377 353.8599127197266ZM2122.6401947021486 450.2419677734375Q2127.4581732177735 450.2419677734375 2132.3091571044924 447.0849261474609Q2137.160140991211 443.9278845214844 2141.670127563477 438.361823425293Q2146.1801141357423 432.79576232910154 2149.9421020507816 425.6126998901367Q2153.7040899658205 418.42963745117186 2156.36607788086 410.366591796875Q2159.028065795899 402.3035461425781 2160.1940496826173 394.0535394287109Q2162.4160174560548 380.78766967773436 2161.1400234985354 372.405758972168Q2159.864029541016 364.0238482666016 2155.959066467285 359.92089660644535Q2152.0541033935547 355.81794494628906 2146.4661584472656 355.37795166015627Q2141.4501812744143 355.02595703125 2136.247202758789 357.96300201416017Q2131.044224243164 360.9000469970703 2126.1822430419925 366.42210876464844Q2121.3202618408204 371.94417053222656 2117.2062792968754 379.3472296142578Q2113.09229675293 386.7502886962891 2110.1443148803714 395.38532562255864Q2107.196333007813 404.02036254882813 2105.9203491210938 413.1503558349609Q2103.6323840332034 427.12021484375 2105.4583679199222 435.2381295776367Q2107.2843518066406 443.3560443115234 2111.9043048095705 446.79900604248047Q2116.5242578125003 450.2419677734375 2122.6401947021486 450.2419677734375Z"/>
</g>
</svg>